<?xml version="1.0" encoding="iso-8859-1"?>
<!-- Generator: Adobe Illustrator 19.0.0, SVG Export Plug-In . SVG Version: 6.00 Build 0)  -->
<svg version="1.1" id="Capa_1" xmlns="http://www.w3.org/2000/svg" xmlns:xlink="http://www.w3.org/1999/xlink" x="0px" y="0px"
	 viewBox="0 0 512 512" style="enable-background:new 0 0 512 512;" xml:space="preserve">
<circle style="fill:#9CE2D8;" cx="256" cy="267" r="245"/>
<circle style="fill:#FFFFFF;" cx="357.58" cy="29.07" r="21.575"/>
<path style="fill:#2E4C89;" d="M350.076,57.164v29.554h15V57.164c12.408-3.316,21.575-14.65,21.575-28.089
	C386.651,13.043,373.608,0,357.576,0c-16.031,0-29.074,13.043-29.074,29.075C328.502,42.514,337.669,53.848,350.076,57.164z
	 M357.576,15c7.761,0,14.075,6.315,14.075,14.075s-6.314,14.075-14.075,14.075c-7.761,0-14.074-6.314-14.074-14.075
	S349.815,15,357.576,15z"/>
<rect x="237" y="155.04" style="fill:#445EA0;" width="16.16" height="117.82"/>
<path style="fill:#2E4C89;" d="M484,155.044h-22.004v117.821H484c5.5,0,10-4.5,10-10v-97.821C494,159.544,489.5,155.044,484,155.044
	z"/>
<path style="fill:#445EA0;" d="M462.996,319.875c0,8.25-6.75,15-15,15h-180.84c-8.25,0-15-6.75-15-15V100.593c0-8.25,6.75-15,15-15
	h180.84c8.25,0,15,6.75,15,15V319.875z"/>
<g>
	<path style="fill:#2E4C89;" d="M262.16,319.875V100.593c0-8.25,6.75-15,15-15h-10.004c-8.25,0-15,6.75-15,15v219.282
		c0,8.25,6.75,15,15,15h10.004C268.91,334.875,262.16,328.125,262.16,319.875z"/>
	<path style="fill:#2E4C89;" d="M445.707,226.239c0,8.25-6.75,15-15,15H284.448c-8.25,0-15-6.75-15-15v-83.48c0-8.25,6.75-15,15-15
		h146.259c8.25,0,15,6.75,15,15V226.239z"/>
</g>
<path style="fill:#293D7C;" d="M445.707,222.635c0,10.232-8.373,18.605-18.603,18.605H288.05c-10.231,0-18.602-8.372-18.602-18.605
	v-76.273c0-10.23,8.37-18.601,18.602-18.601h139.055c10.23,0,18.603,8.371,18.603,18.601L445.707,222.635L445.707,222.635z"/>
<g>
	<path style="fill:#1A2B63;" d="M279.741,222.635v-76.273c0-10.23,8.37-18.601,18.602-18.601H288.05
		c-10.231,0-18.602,8.371-18.602,18.601v76.273c0,10.232,8.37,18.605,18.602,18.605h10.293
		C288.111,241.239,279.741,232.867,279.741,222.635z"/>
	<path style="fill:#1A2B63;" d="M307.973,127.76v2.17c0,10.232,8.372,18.604,18.602,18.604h62.004
		c10.229,0,18.602-8.371,18.602-18.604v-2.17C407.181,127.76,307.973,127.76,307.973,127.76z"/>
</g>
<g>
	<path style="fill:#02AF8E;" d="M330.525,205.854c0,2.75-2.25,5-5,5h-17.709c-2.75,0-5-2.25-5-5V169.67c0-2.75,2.25-5,5-5h17.709
		c2.75,0,5,2.25,5,5L330.525,205.854L330.525,205.854z"/>
	<path style="fill:#02AF8E;" d="M412.336,205.854c0,2.75-2.25,5-5,5h-17.709c-2.75,0-5-2.25-5-5V169.67c0-2.75,2.25-5,5-5h17.709
		c2.75,0,5,2.25,5,5V205.854z"/>
</g>
<g>
	<path style="fill:#0F9390;" d="M313,205.854V169.67c0-2.75,2.25-5,5-5h-10.184c-2.75,0-5,2.25-5,5v36.184c0,2.75,2.25,5,5,5H318
		C315.25,210.854,313,208.604,313,205.854z"/>
	<path style="fill:#0F9390;" d="M394.81,205.854V169.67c0-2.75,2.25-5,5-5h-10.183c-2.75,0-5,2.25-5,5v36.184c0,2.75,2.25,5,5,5
		h10.183C397.06,210.854,394.81,208.604,394.81,205.854z"/>
</g>
<path style="fill:#02AF8E;" d="M416.075,289.245c0,2.75-2.25,5-5,5H304.078c-2.75,0-5-2.25-5-5v-16.342c0-2.75,2.25-5,5-5h106.997
	c2.75,0,5,2.25,5,5V289.245z"/>
<path style="fill:#0F9390;" d="M320.003,289.245v-16.342c0-2.75,2.25-5,5-5h-20.925c-2.75,0-5,2.25-5,5v16.342c0,2.75,2.25,5,5,5
	h20.925C322.253,294.245,320.003,291.995,320.003,289.245z"/>
<path style="fill:#445EA0;" d="M140.199,355.96c0-4.963,4.038-9,9-9h89.028V82.082c0-9.944-8.137-18.078-18.077-18.078H43.001
	c-9.946,0-18.08,8.134-18.08,18.078v358.611c0,9.946,8.133,18.078,18.08,18.078h97.198V355.96z"/>
<path style="fill:#2E4C89;" d="M45.694,440.693V82.082c0-9.944,8.133-18.078,18.08-18.078H43.001c-9.946,0-18.08,8.134-18.08,18.078
	v358.611c0,9.946,8.133,18.078,18.08,18.078h20.772C53.828,458.772,45.694,450.64,45.694,440.693z"/>
<path style="fill:#293D7C;" d="M140.199,355.96c0-4.963,4.038-9,9-9h89.028V101.589H24.922v308.343h115.277V355.96z"/>
<path style="fill:#FFAF10;" d="M218.046,313.8c0,5.5-4.5,10-10,10H55.103c-5.5,0-10-4.5-10-10v-51.577c0-5.5,4.5-10,10-10h152.943
	c5.5,0,10,4.5,10,10L218.046,313.8L218.046,313.8z"/>
<path style="fill:#EF9614;" d="M56,313.8v-51.577c0-5.5,4.5-10,10-10H55.103c-5.5,0-10,4.5-10,10V313.8c0,5.5,4.5,10,10,10H66
	C60.5,323.8,56,319.3,56,313.8z"/>
<g>
	<path style="fill:#FFFFFF;" d="M140.199,419.477h-27.086c-4.142,0-7.5,3.357-7.5,7.5s3.358,7.5,7.5,7.5h27.086V419.477z"/>
	<path style="fill:#FFFFFF;" d="M189.642,282.606H73.508c-4.142,0-7.5-3.357-7.5-7.5s3.358-7.5,7.5-7.5h116.134
		c4.142,0,7.5,3.357,7.5,7.5S193.784,282.606,189.642,282.606z"/>
	<path style="fill:#FFFFFF;" d="M134.827,308.416H73.508c-4.142,0-7.5-3.357-7.5-7.5s3.358-7.5,7.5-7.5h61.319
		c4.142,0,7.5,3.357,7.5,7.5S138.969,308.416,134.827,308.416z"/>
</g>
<path style="fill:#02AF8E;" d="M218.046,223.955c0,5.5-4.5,10-10,10H55.103c-5.5,0-10-4.5-10-10v-92.602c0-5.5,4.5-10,10-10h152.943
	c5.5,0,10,4.5,10,10L218.046,223.955L218.046,223.955z"/>
<path style="fill:#0F9390;" d="M56,223.955v-92.602c0-5.5,4.5-10,10-10H55.103c-5.5,0-10,4.5-10,10v92.602c0,5.5,4.5,10,10,10H66
	C60.5,233.955,56,229.455,56,223.955z"/>
<g>
	<path style="fill:#FFFFFF;" d="M189.642,159.347H73.508c-4.142,0-7.5-3.357-7.5-7.5s3.358-7.5,7.5-7.5h116.134
		c4.142,0,7.5,3.357,7.5,7.5C197.142,155.989,193.784,159.347,189.642,159.347z"/>
	<path style="fill:#FFFFFF;" d="M189.642,185.156H73.508c-4.142,0-7.5-3.357-7.5-7.5s3.358-7.5,7.5-7.5h116.134
		c4.142,0,7.5,3.357,7.5,7.5C197.142,181.799,193.784,185.156,189.642,185.156z"/>
	<path style="fill:#FFFFFF;" d="M134.827,210.965H73.508c-4.142,0-7.5-3.357-7.5-7.5s3.358-7.5,7.5-7.5h61.319
		c4.142,0,7.5,3.357,7.5,7.5C142.327,207.607,138.969,210.965,134.827,210.965z"/>
</g>
<path style="fill:#02AF8E;" d="M417.01,345.96H149.199c-5.5,0-10,4.5-10,10v117.053c0,5.5,4.5,10,10,10h222.478
	c20.336-10.913,38.946-24.616,55.333-40.593v-86.46C427.01,350.46,422.51,345.96,417.01,345.96z"/>
<path style="fill:#0F9390;" d="M155.01,473.013V355.96c0-5.5,4.5-10,10-10h-15.811c-5.5,0-10,4.5-10,10v117.053c0,5.5,4.5,10,10,10
	h15.811C159.51,483.013,155.01,478.513,155.01,473.013z"/>
<g>
	<path style="fill:#FFFFFF;" d="M174.04,379.3c-1.97,0-3.9-0.8-5.3-2.19c-1.4-1.399-2.2-3.33-2.2-5.31c0-1.97,0.8-3.9,2.2-5.3
		s3.33-2.2,5.3-2.2c1.98,0,3.91,0.8,5.31,2.2c1.39,1.399,2.19,3.33,2.19,5.3c0,1.979-0.8,3.91-2.19,5.31
		C177.95,378.5,176.02,379.3,174.04,379.3z"/>
	<path style="fill:#FFFFFF;" d="M205.2,379.3c-1.97,0-3.9-0.8-5.3-2.19c-1.4-1.399-2.2-3.33-2.2-5.31c0-1.97,0.8-3.9,2.2-5.3
		s3.33-2.2,5.3-2.2c1.98,0,3.91,0.8,5.31,2.2c1.39,1.399,2.2,3.33,2.2,5.3c0,1.979-0.81,3.91-2.2,5.31
		C209.11,378.5,207.18,379.3,205.2,379.3z"/>
	<path style="fill:#FFFFFF;" d="M236.36,379.3c-1.97,0-3.9-0.8-5.3-2.19c-1.4-1.399-2.2-3.33-2.2-5.31c0-1.97,0.8-3.9,2.2-5.3
		s3.329-2.2,5.3-2.2c1.98,0,3.91,0.8,5.31,2.2c1.39,1.399,2.2,3.33,2.2,5.3c0,1.979-0.81,3.91-2.2,5.31
		C240.27,378.5,238.34,379.3,236.36,379.3z"/>
	<path style="fill:#FFFFFF;" d="M267.519,379.3c-1.97,0-3.91-0.8-5.3-2.19c-1.4-1.399-2.2-3.33-2.2-5.31c0-1.97,0.8-3.9,2.2-5.3
		c1.4-1.4,3.33-2.2,5.3-2.2c1.981,0,3.91,0.8,5.311,2.2c1.39,1.399,2.189,3.33,2.189,5.3c0,1.979-0.8,3.91-2.189,5.31
		C271.43,378.5,269.5,379.3,267.519,379.3z"/>
	<path style="fill:#FFFFFF;" d="M298.68,379.3c-1.97,0-3.91-0.8-5.3-2.19c-1.4-1.399-2.2-3.33-2.2-5.31c0-1.97,0.8-3.9,2.2-5.3
		c1.4-1.4,3.33-2.2,5.3-2.2c1.98,0,3.91,0.8,5.311,2.2c1.39,1.399,2.199,3.33,2.199,5.3c0,1.979-0.81,3.91-2.199,5.31
		C302.59,378.5,300.66,379.3,298.68,379.3z"/>
	<path style="fill:#FFFFFF;" d="M329.84,379.3c-1.97,0-3.9-0.8-5.3-2.19c-1.391-1.399-2.2-3.33-2.2-5.31c0-1.97,0.81-3.9,2.2-5.3
		c1.4-1.4,3.33-2.2,5.3-2.2c1.979,0,3.91,0.8,5.31,2.2c1.391,1.399,2.2,3.33,2.2,5.3c0,1.979-0.81,3.91-2.2,5.31
		C333.75,378.5,331.819,379.3,329.84,379.3z"/>
	<path style="fill:#FFFFFF;" d="M361,379.3c-1.97,0-3.91-0.8-5.3-2.19c-1.391-1.399-2.2-3.33-2.2-5.31c0-1.97,0.81-3.9,2.2-5.3
		c1.399-1.4,3.33-2.2,5.3-2.2c1.979,0,3.91,0.8,5.31,2.2c1.391,1.399,2.2,3.33,2.2,5.3c0,1.979-0.81,3.91-2.2,5.31
		C364.91,378.5,362.979,379.3,361,379.3z"/>
	<path style="fill:#FFFFFF;" d="M392.16,379.3c-1.971,0-3.9-0.8-5.301-2.19c-1.399-1.399-2.199-3.33-2.199-5.31
		c0-1.97,0.8-3.9,2.199-5.3c1.4-1.4,3.33-2.2,5.301-2.2c1.979,0,3.909,0.8,5.31,2.2c1.39,1.399,2.2,3.33,2.2,5.3
		c0,1.979-0.81,3.91-2.2,5.31C396.069,378.5,394.14,379.3,392.16,379.3z"/>
	<path style="fill:#FFFFFF;" d="M174.04,407.76c-1.97,0-3.9-0.8-5.3-2.2c-1.4-1.399-2.2-3.33-2.2-5.3c0-1.98,0.8-3.91,2.2-5.31
		c1.4-1.391,3.33-2.19,5.3-2.19c1.98,0,3.91,0.8,5.31,2.19c1.4,1.399,2.2,3.34,2.2,5.31s-0.8,3.9-2.2,5.3
		S176.02,407.76,174.04,407.76z"/>
	<path style="fill:#FFFFFF;" d="M205.2,407.76c-1.97,0-3.9-0.8-5.3-2.2c-1.39-1.399-2.19-3.33-2.19-5.3s0.8-3.91,2.19-5.31
		c1.4-1.391,3.33-2.19,5.3-2.19c1.98,0,3.91,0.8,5.31,2.19c1.39,1.399,2.2,3.329,2.2,5.31c0,1.97-0.81,3.9-2.2,5.3
		C209.11,406.96,207.18,407.76,205.2,407.76z"/>
	<path style="fill:#FFFFFF;" d="M236.36,407.76c-1.97,0-3.9-0.8-5.3-2.2c-1.39-1.399-2.19-3.33-2.19-5.3c0-1.98,0.8-3.91,2.19-5.31
		c1.4-1.391,3.329-2.19,5.3-2.19c1.98,0,3.91,0.8,5.31,2.19c1.39,1.399,2.19,3.329,2.19,5.31c0,1.97-0.8,3.9-2.19,5.3
		C240.27,406.96,238.34,407.76,236.36,407.76z"/>
	<path style="fill:#FFFFFF;" d="M267.53,407.76c-1.98,0-3.91-0.8-5.311-2.2c-1.39-1.39-2.2-3.33-2.2-5.3c0-1.98,0.811-3.91,2.2-5.31
		c1.4-1.391,3.33-2.19,5.311-2.19c1.97,0,3.899,0.8,5.3,2.19c1.39,1.399,2.189,3.329,2.189,5.31c0,1.97-0.8,3.9-2.189,5.3
		C271.43,406.96,269.5,407.76,267.53,407.76z"/>
	<path style="fill:#FFFFFF;" d="M298.69,407.76c-1.98,0-3.909-0.8-5.31-2.2c-1.4-1.399-2.2-3.33-2.2-5.3c0-1.98,0.8-3.91,2.2-5.31
		c1.4-1.391,3.33-2.19,5.31-2.19c1.971,0,3.9,0.8,5.301,2.19c1.39,1.399,2.199,3.34,2.199,5.31s-0.81,3.9-2.199,5.3
		C302.59,406.96,300.66,407.76,298.69,407.76z"/>
	<path style="fill:#FFFFFF;" d="M329.84,407.76c-1.97,0-3.9-0.8-5.3-2.2c-1.391-1.39-2.19-3.33-2.19-5.3c0-1.98,0.8-3.91,2.19-5.31
		c1.4-1.391,3.33-2.19,5.3-2.19c1.979,0,3.91,0.8,5.31,2.19c1.391,1.399,2.2,3.329,2.2,5.31c0,1.97-0.81,3.9-2.2,5.3
		C333.75,406.96,331.819,407.76,329.84,407.76z"/>
	<path style="fill:#FFFFFF;" d="M361,407.76c-1.97,0-3.9-0.8-5.3-2.2c-1.391-1.399-2.19-3.33-2.19-5.3s0.8-3.91,2.19-5.31
		c1.399-1.391,3.33-2.19,5.3-2.19c1.979,0,3.91,0.8,5.31,2.19c1.391,1.399,2.19,3.34,2.19,5.31s-0.8,3.9-2.19,5.3
		C364.91,406.96,362.979,407.76,361,407.76z"/>
	<path style="fill:#FFFFFF;" d="M392.17,407.76c-1.98,0-3.91-0.8-5.31-2.2c-1.39-1.399-2.199-3.33-2.199-5.3
		c0-1.98,0.81-3.91,2.199-5.31c1.4-1.391,3.33-2.19,5.31-2.19c1.97,0,3.899,0.8,5.3,2.19c1.39,1.399,2.2,3.34,2.2,5.31
		s-0.81,3.9-2.2,5.3C396.069,406.96,394.14,407.76,392.17,407.76z"/>
	<path style="fill:#FFFFFF;" d="M174.04,436.21c-1.97,0-3.91-0.8-5.3-2.19c-1.39-1.399-2.19-3.33-2.19-5.3
		c0-1.979,0.8-3.91,2.19-5.31c1.4-1.391,3.33-2.2,5.3-2.2c1.98,0,3.91,0.81,5.31,2.2c1.39,1.399,2.2,3.33,2.2,5.31
		c0,1.97-0.81,3.9-2.2,5.3C177.95,435.41,176.02,436.21,174.04,436.21z"/>
	<path style="fill:#FFFFFF;" d="M205.21,436.21c-1.98,0-3.91-0.8-5.31-2.19c-1.4-1.399-2.2-3.33-2.2-5.3c0-1.979,0.8-3.91,2.2-5.31
		c1.4-1.391,3.33-2.2,5.31-2.2c1.97,0,3.9,0.81,5.3,2.2c1.4,1.399,2.2,3.33,2.2,5.31c0,1.97-0.8,3.9-2.2,5.3
		C209.11,435.41,207.18,436.21,205.21,436.21z"/>
	<path style="fill:#FFFFFF;" d="M236.37,436.21c-1.98,0-3.91-0.8-5.31-2.19c-1.39-1.399-2.2-3.33-2.2-5.3
		c0-1.979,0.81-3.91,2.2-5.31c1.4-1.391,3.329-2.2,5.31-2.2c1.97,0,3.9,0.81,5.3,2.2c1.39,1.399,2.19,3.33,2.19,5.31
		c0,1.97-0.8,3.9-2.19,5.3C240.27,435.41,238.34,436.21,236.37,436.21z"/>
	<path style="fill:#FFFFFF;" d="M267.519,436.21c-1.97,0-3.91-0.8-5.3-2.19c-1.39-1.399-2.2-3.33-2.2-5.3
		c0-1.979,0.811-3.91,2.2-5.31c1.39-1.391,3.33-2.2,5.3-2.2c1.981,0,3.91,0.81,5.311,2.2c1.39,1.399,2.189,3.33,2.189,5.31
		c0,1.97-0.8,3.9-2.189,5.3C271.43,435.41,269.5,436.21,267.519,436.21z"/>
	<path style="fill:#FFFFFF;" d="M298.68,436.21c-1.97,0-3.899-0.8-5.3-2.19c-1.39-1.399-2.19-3.33-2.19-5.3
		c0-1.979,0.801-3.91,2.19-5.31c1.4-1.391,3.33-2.2,5.3-2.2c1.98,0,3.91,0.81,5.311,2.2c1.39,1.399,2.199,3.33,2.199,5.31
		c0,1.97-0.81,3.9-2.199,5.3C302.59,435.41,300.66,436.21,298.68,436.21z"/>
	<path style="fill:#FFFFFF;" d="M329.85,436.21c-1.98,0-3.91-0.8-5.31-2.19c-1.391-1.399-2.2-3.33-2.2-5.3
		c0-1.979,0.81-3.91,2.2-5.31c1.4-1.391,3.33-2.2,5.31-2.2c1.97,0,3.9,0.81,5.3,2.2c1.391,1.399,2.19,3.33,2.19,5.31
		c0,1.97-0.8,3.9-2.19,5.3C333.75,435.41,331.819,436.21,329.85,436.21z"/>
	<path style="fill:#FFFFFF;" d="M361,436.21c-1.97,0-3.91-0.8-5.3-2.19c-1.391-1.399-2.19-3.33-2.19-5.3c0-1.979,0.8-3.91,2.19-5.31
		c1.39-1.391,3.33-2.2,5.3-2.2c1.979,0,3.91,0.81,5.31,2.2c1.391,1.399,2.19,3.33,2.19,5.31c0,1.97-0.8,3.9-2.19,5.3
		C364.91,435.41,362.979,436.21,361,436.21z"/>
	<path style="fill:#FFFFFF;" d="M392.16,436.21c-1.971,0-3.9-0.8-5.301-2.19c-1.39-1.399-2.19-3.33-2.19-5.3
		c0-1.979,0.8-3.91,2.19-5.31c1.4-1.391,3.33-2.2,5.301-2.2c1.979,0,3.909,0.81,5.31,2.2c1.39,1.399,2.2,3.33,2.2,5.31
		c0,1.97-0.81,3.9-2.2,5.3C396.069,435.41,394.14,436.21,392.16,436.21z"/>
	<path style="fill:#FFFFFF;" d="M174.04,464.67c-1.97,0-3.9-0.8-5.3-2.2c-1.39-1.39-2.19-3.33-2.19-5.3s0.8-3.91,2.19-5.31
		c1.4-1.39,3.33-2.19,5.3-2.19c1.98,0,3.91,0.8,5.31,2.19c1.4,1.4,2.2,3.341,2.2,5.31s-0.8,3.899-2.2,5.3
		C177.95,463.87,176.02,464.67,174.04,464.67z"/>
	<path style="fill:#FFFFFF;" d="M205.2,464.67c-1.97,0-3.9-0.8-5.3-2.2c-1.39-1.39-2.19-3.33-2.19-5.3c0-1.98,0.8-3.91,2.19-5.31
		c1.4-1.39,3.33-2.19,5.3-2.19c1.98,0,3.91,0.8,5.31,2.19c1.39,1.4,2.2,3.341,2.2,5.31s-0.81,3.899-2.2,5.3
		C209.11,463.87,207.18,464.67,205.2,464.67z"/>
	<path style="fill:#FFFFFF;" d="M361,464.67c-1.97,0-3.91-0.8-5.3-2.2c-1.391-1.4-2.2-3.33-2.2-5.3s0.81-3.91,2.2-5.31
		c1.399-1.39,3.33-2.19,5.3-2.19c1.979,0,3.91,0.8,5.31,2.19c1.391,1.4,2.19,3.341,2.19,5.31s-0.8,3.899-2.19,5.3
		C364.91,463.87,362.979,464.67,361,464.67z"/>
	<path style="fill:#FFFFFF;" d="M392.16,464.67c-1.971,0-3.9-0.8-5.301-2.2c-1.39-1.39-2.19-3.33-2.19-5.3s0.8-3.91,2.19-5.31
		c1.4-1.39,3.33-2.19,5.301-2.19c1.979,0,3.909,0.8,5.31,2.19c1.39,1.4,2.2,3.341,2.2,5.31s-0.81,3.899-2.2,5.3
		C396.069,463.87,394.14,464.67,392.16,464.67z"/>
	<path style="fill:#FFFFFF;" d="M329.845,464.668h-93.48c-4.142,0-7.5-3.358-7.5-7.5c0-4.143,3.358-7.5,7.5-7.5h93.48
		c4.143,0,7.5,3.357,7.5,7.5C337.345,461.31,333.987,464.668,329.845,464.668z"/>
</g>
<g>
</g>
<g>
</g>
<g>
</g>
<g>
</g>
<g>
</g>
<g>
</g>
<g>
</g>
<g>
</g>
<g>
</g>
<g>
</g>
<g>
</g>
<g>
</g>
<g>
</g>
<g>
</g>
<g>
</g>
</svg>
